<svg width="152" height="25" viewBox="0 0 152 25" fill="none" xmlns="http://www.w3.org/2000/svg">
<path d="M0.03125 1.25H8.51562C10.2552 1.25 11.75 1.51042 13 2.03125C14.2604 2.55208 15.2292 3.32292 15.9062 4.34375C16.5833 5.36458 16.9219 6.61979 16.9219 8.10938C16.9219 9.32812 16.7135 10.375 16.2969 11.25C15.8906 12.1146 15.3125 12.8385 14.5625 13.4219C13.8229 13.9948 12.9531 14.4531 11.9531 14.7969L10.4688 15.5781H3.09375L3.0625 11.9219H8.54688C9.36979 11.9219 10.0521 11.776 10.5938 11.4844C11.1354 11.1927 11.5417 10.7865 11.8125 10.2656C12.0938 9.74479 12.2344 9.14062 12.2344 8.45312C12.2344 7.72396 12.099 7.09375 11.8281 6.5625C11.5573 6.03125 11.1458 5.625 10.5938 5.34375C10.0417 5.0625 9.34896 4.92188 8.51562 4.92188H4.71875V24H0.03125V1.25ZM12.75 24L7.5625 13.8594L12.5156 13.8281L17.7656 23.7812V24H12.75ZM22.6719 1.25H26.6406L32.4844 17.9531L38.3281 1.25H42.2969L34.0781 24H30.8906L22.6719 1.25ZM20.5312 1.25H24.4844L25.2031 17.5312V24H20.5312V1.25ZM40.4844 1.25H44.4531V24H39.7656V17.5312L40.4844 1.25ZM67.25 12.0938V13.1719C67.25 14.901 67.0156 16.4531 66.5469 17.8281C66.0781 19.2031 65.4167 20.375 64.5625 21.3438C63.7083 22.3021 62.6875 23.0365 61.5 23.5469C60.3229 24.0573 59.0156 24.3125 57.5781 24.3125C56.151 24.3125 54.8438 24.0573 53.6562 23.5469C52.4792 23.0365 51.4583 22.3021 50.5938 21.3438C49.7292 20.375 49.0573 19.2031 48.5781 17.8281C48.1094 16.4531 47.875 14.901 47.875 13.1719V12.0938C47.875 10.3542 48.1094 8.80208 48.5781 7.4375C49.0469 6.0625 49.7083 4.89062 50.5625 3.92188C51.4271 2.95312 52.4479 2.21354 53.625 1.70312C54.8125 1.19271 56.1198 0.9375 57.5469 0.9375C58.9844 0.9375 60.2917 1.19271 61.4688 1.70312C62.6562 2.21354 63.6771 2.95312 64.5312 3.92188C65.3958 4.89062 66.0625 6.0625 66.5312 7.4375C67.0104 8.80208 67.25 10.3542 67.25 12.0938ZM62.5156 13.1719V12.0625C62.5156 10.8542 62.4062 9.79167 62.1875 8.875C61.9688 7.95833 61.6458 7.1875 61.2188 6.5625C60.7917 5.9375 60.2708 5.46875 59.6562 5.15625C59.0417 4.83333 58.3385 4.67188 57.5469 4.67188C56.7552 4.67188 56.0521 4.83333 55.4375 5.15625C54.8333 5.46875 54.3177 5.9375 53.8906 6.5625C53.474 7.1875 53.1562 7.95833 52.9375 8.875C52.7188 9.79167 52.6094 10.8542 52.6094 12.0625V13.1719C52.6094 14.3698 52.7188 15.4323 52.9375 16.3594C53.1562 17.276 53.4792 18.0521 53.9062 18.6875C54.3333 19.3125 54.8542 19.7865 55.4688 20.1094C56.0833 20.4323 56.7865 20.5938 57.5781 20.5938C58.3698 20.5938 59.0729 20.4323 59.6875 20.1094C60.3021 19.7865 60.8177 19.3125 61.2344 18.6875C61.651 18.0521 61.9688 17.276 62.1875 16.3594C62.4062 15.4323 62.5156 14.3698 62.5156 13.1719ZM84.0312 10.7031V24H79.5312V7.09375H83.75L84.0312 10.7031ZM83.375 14.9531H82.1562C82.1562 13.7031 82.3177 12.5781 82.6406 11.5781C82.9635 10.5677 83.4167 9.70833 84 9C84.5833 8.28125 85.276 7.73438 86.0781 7.35938C86.8906 6.97396 87.7969 6.78125 88.7969 6.78125C89.5885 6.78125 90.3125 6.89583 90.9688 7.125C91.625 7.35417 92.1875 7.71875 92.6562 8.21875C93.1354 8.71875 93.5 9.38021 93.75 10.2031C94.0104 11.026 94.1406 12.0312 94.1406 13.2188V24H89.6094V13.2031C89.6094 12.4531 89.5052 11.8698 89.2969 11.4531C89.0885 11.0365 88.7812 10.7448 88.375 10.5781C87.9792 10.401 87.4896 10.3125 86.9062 10.3125C86.3021 10.3125 85.776 10.4323 85.3281 10.6719C84.8906 10.9115 84.526 11.2448 84.2344 11.6719C83.9531 12.0885 83.7396 12.5781 83.5938 13.1406C83.4479 13.7031 83.375 14.3073 83.375 14.9531ZM105.344 24.3125C104.031 24.3125 102.854 24.1042 101.812 23.6875C100.771 23.2604 99.8854 22.6719 99.1562 21.9219C98.4375 21.1719 97.8854 20.3021 97.5 19.3125C97.1146 18.3125 96.9219 17.25 96.9219 16.125V15.5C96.9219 14.2188 97.1042 13.0469 97.4688 11.9844C97.8333 10.9219 98.3542 10 99.0312 9.21875C99.7188 8.4375 100.552 7.83854 101.531 7.42188C102.51 6.99479 103.615 6.78125 104.844 6.78125C106.042 6.78125 107.104 6.97917 108.031 7.375C108.958 7.77083 109.734 8.33333 110.359 9.0625C110.995 9.79167 111.474 10.6667 111.797 11.6875C112.12 12.6979 112.281 13.8229 112.281 15.0625V16.9375H98.8438V13.9375H107.859V13.5938C107.859 12.9688 107.745 12.4115 107.516 11.9219C107.297 11.4219 106.964 11.026 106.516 10.7344C106.068 10.4427 105.495 10.2969 104.797 10.2969C104.203 10.2969 103.693 10.4271 103.266 10.6875C102.839 10.9479 102.49 11.3125 102.219 11.7812C101.958 12.25 101.76 12.8021 101.625 13.4375C101.5 14.0625 101.438 14.75 101.438 15.5V16.125C101.438 16.8021 101.531 17.4271 101.719 18C101.917 18.5729 102.193 19.0677 102.547 19.4844C102.911 19.901 103.349 20.224 103.859 20.4531C104.38 20.6823 104.969 20.7969 105.625 20.7969C106.438 20.7969 107.193 20.6406 107.891 20.3281C108.599 20.0052 109.208 19.5208 109.719 18.875L111.906 21.25C111.552 21.7604 111.068 22.25 110.453 22.7188C109.849 23.1875 109.12 23.5729 108.266 23.875C107.411 24.1667 106.438 24.3125 105.344 24.3125ZM119.672 19.625L123.188 7.09375H126.047L125.125 12.0156L121.609 24H119.219L119.672 19.625ZM117.891 7.09375L120.406 19.6094L120.641 24H117.828L113.547 7.09375H117.891ZM129.266 19.4062L131.719 7.09375H136.078L131.797 24H129L129.266 19.4062ZM126.438 7.09375L129.938 19.5312L130.422 24H128.016L124.5 12.0312L123.609 7.09375H126.438ZM147.484 19.3281C147.484 19.0052 147.391 18.7135 147.203 18.4531C147.016 18.1927 146.667 17.9531 146.156 17.7344C145.656 17.5052 144.932 17.2969 143.984 17.1094C143.13 16.9219 142.333 16.6875 141.594 16.4062C140.865 16.1146 140.229 15.7656 139.688 15.3594C139.156 14.9531 138.74 14.474 138.438 13.9219C138.135 13.3594 137.984 12.7188 137.984 12C137.984 11.2917 138.135 10.625 138.438 10C138.75 9.375 139.193 8.82292 139.766 8.34375C140.349 7.85417 141.057 7.47396 141.891 7.20312C142.734 6.92188 143.682 6.78125 144.734 6.78125C146.203 6.78125 147.464 7.01562 148.516 7.48438C149.578 7.95312 150.391 8.59896 150.953 9.42188C151.526 10.2344 151.812 11.1615 151.812 12.2031H147.312C147.312 11.7656 147.219 11.375 147.031 11.0312C146.854 10.6771 146.573 10.401 146.188 10.2031C145.812 9.99479 145.323 9.89062 144.719 9.89062C144.219 9.89062 143.786 9.97917 143.422 10.1562C143.057 10.3229 142.776 10.5521 142.578 10.8438C142.391 11.125 142.297 11.4375 142.297 11.7812C142.297 12.0417 142.349 12.276 142.453 12.4844C142.568 12.6823 142.75 12.8646 143 13.0312C143.25 13.1979 143.573 13.3542 143.969 13.5C144.375 13.6354 144.875 13.7604 145.469 13.875C146.688 14.125 147.776 14.4531 148.734 14.8594C149.693 15.2552 150.453 15.7969 151.016 16.4844C151.578 17.1615 151.859 18.0521 151.859 19.1562C151.859 19.9062 151.693 20.5938 151.359 21.2188C151.026 21.8438 150.547 22.3906 149.922 22.8594C149.297 23.3177 148.547 23.6771 147.672 23.9375C146.807 24.1875 145.833 24.3125 144.75 24.3125C143.177 24.3125 141.844 24.0312 140.75 23.4688C139.667 22.9062 138.844 22.1927 138.281 21.3281C137.729 20.4531 137.453 19.5573 137.453 18.6406H141.719C141.74 19.2552 141.896 19.75 142.188 20.125C142.49 20.5 142.87 20.7708 143.328 20.9375C143.797 21.1042 144.302 21.1875 144.844 21.1875C145.427 21.1875 145.911 21.1094 146.297 20.9531C146.682 20.7865 146.974 20.5677 147.172 20.2969C147.38 20.0156 147.484 19.6927 147.484 19.3281Z" fill="#E1E1E6"/>
<path d="M70.5625 21.8281C70.5625 21.1615 70.7917 20.6042 71.25 20.1562C71.7188 19.7083 72.3385 19.4844 73.1094 19.4844C73.8802 19.4844 74.4948 19.7083 74.9531 20.1562C75.4219 20.6042 75.6562 21.1615 75.6562 21.8281C75.6562 22.4948 75.4219 23.0521 74.9531 23.5C74.4948 23.9479 73.8802 24.1719 73.1094 24.1719C72.3385 24.1719 71.7188 23.9479 71.25 23.5C70.7917 23.0521 70.5625 22.4948 70.5625 21.8281Z" fill="#61DCFB"/>
</svg>
